<?xml version="1.0" standalone="no"?>
<!DOCTYPE svg PUBLIC "-//W3C//DTD SVG 1.1//EN" "http://www.w3.org/Graphics/SVG/1.1/DTD/svg11.dtd" >
<svg xmlns="http://www.w3.org/2000/svg" xmlns:xlink="http://www.w3.org/1999/xlink" version="1.1">
<metadata>
Created by FontForge 20161003 at Wed Jun  6 13:35:29 2018
 By www-data
Copyright (URW)++,Copyright 2014 by (URW)++ Design &#38; Development
</metadata>
<defs>
<font id="NeuzeitGro-Lig" horiz-adv-x="500" >
  <font-face 
    font-family="Neuzeit Grotesk"
    font-weight="300"
    font-stretch="normal"
    units-per-em="1000"
    panose-1="0 0 4 0 0 0 0 0 0 0"
    ascent="750"
    descent="-250"
    x-height="460"
    cap-height="667"
    bbox="-38 -236 942 857"
    underline-thickness="38"
    underline-position="-96"
    stemh="48"
    stemv="51"
    unicode-range="U+0020-2122"
  />
<missing-glyph horiz-adv-x="300" 
 />
    <glyph glyph-name="fi" unicode="fi" horiz-adv-x="491" 
d="M140 413v-413h-50v413h-69v47h69v81c0 42 9 71 29 93c20 21 50 34 81 34c4 0 10 0 18 -1v-42c-61 -7 -76 -23 -78 -84v-81h78v-47h-78zM407 460v-460h-50v460h50zM383 627c21 0 37 -17 37 -39c0 -20 -17 -37 -37 -37c-21 0 -38 17 -38 38s17 38 38 38z" />
    <glyph glyph-name="fl" unicode="fl" horiz-adv-x="491" 
d="M140 413v-413h-50v413h-69v47h69v81c0 42 9 71 29 93c20 21 50 34 81 34c4 0 10 0 18 -1v-42c-61 -7 -76 -23 -78 -84v-81h78v-47h-78zM407 0h-50v667h50v-667z" />
    <glyph glyph-name="ff" unicode="ff" horiz-adv-x="519" 
d="M140 413v-413h-50v413h-69v47h69v81c0 42 9 71 29 93c20 21 50 34 81 34c4 0 10 0 18 -1v-42c-61 -7 -76 -23 -78 -84v-81h78v-47h-78zM414 413v-413h-50v413h-69v47h69v81c0 42 9 71 29 93c20 21 50 34 81 34c4 0 10 0 18 -1v-42c-61 -7 -76 -23 -78 -84v-81h78v-47h-78
z" />
    <glyph glyph-name="ffi" unicode="ffi" horiz-adv-x="763" 
d="M139 413v-413h-50v413h-69v47h69v81c0 42 9 71 29 93c20 21 50 34 81 34c4 0 10 0 18 -1v-42c-61 -7 -76 -23 -78 -84v-81h78v-47h-78zM413 413v-413h-50v413h-69v47h69v81c0 42 9 71 29 93c20 21 50 34 81 34c4 0 10 0 18 -1v-42c-61 -7 -76 -23 -78 -84v-81h78v-47h-78
zM680 460v-460h-50v460h50zM656 627c21 0 37 -17 37 -39c0 -20 -17 -37 -37 -37c-21 0 -38 17 -38 38s17 38 38 38z" />
    <glyph glyph-name=".notdef" horiz-adv-x="300" 
 />
    <glyph glyph-name="space" unicode=" " horiz-adv-x="300" 
 />
    <glyph glyph-name="space" unicode="&#xa0;" horiz-adv-x="300" 
 />
    <glyph glyph-name="exclam" unicode="!" horiz-adv-x="242" 
d="M147 667v-530h-52v530h52zM121 77c24 0 41 -18 41 -42c0 -22 -18 -40 -41 -40s-41 18 -41 41c0 24 18 41 41 41z" />
    <glyph glyph-name="quotedbl" unicode="&#x22;" horiz-adv-x="296" 
d="M105 400h-42l-7 267h56zM233 400h-42l-7 267h57z" />
    <glyph glyph-name="numbersign" unicode="#" 
d="M436 286l-1 -41h-106l-30 -218h-42l30 218h-89l-30 -218h-43l30 218h-112l1 41h117l13 97h-108v42h114l28 202h44l-28 -202h88l29 202h41l-28 -202h103l-1 -42h-107l-14 -97h101zM309 385h-93l-15 -102h94z" />
    <glyph glyph-name="dollar" unicode="$" 
d="M260 597v-241c60 -24 75 -31 100 -47c45 -30 74 -84 74 -140c0 -93 -66 -158 -174 -169v-96h-38v96c-44 3 -68 11 -99 32c-44 30 -67 72 -67 119c0 5 0 14 1 22h45c1 -4 1 -9 1 -9v-12c6 -55 60 -103 119 -104v269c-55 21 -72 29 -96 45c-39 26 -65 76 -65 125
c0 55 28 106 74 134c25 14 45 21 87 28v72h38v-72c97 -11 162 -77 160 -163h-49c-6 62 -43 100 -111 111zM222 372v225c-72 -9 -111 -48 -111 -108c0 -56 36 -94 111 -117zM260 300v-252c33 2 50 7 71 21c32 21 52 59 52 97c0 61 -38 102 -123 134z" />
    <glyph glyph-name="percent" unicode="%" horiz-adv-x="576" 
d="M238 549v-110c0 -30 -4 -51 -14 -67c-14 -22 -45 -36 -80 -36c-52 0 -92 33 -92 76v28v109c-1 48 5 71 22 89c17 17 44 28 72 28c27 0 52 -9 69 -26c21 -20 23 -29 23 -91zM85 548v-93c0 -45 1 -50 10 -62c10 -14 30 -23 50 -23c22 0 42 10 52 26c6 11 8 23 8 54v109
c0 49 -20 73 -58 73c-21 0 -40 -7 -50 -19c-11 -13 -12 -20 -12 -65zM524 213v-110c0 -30 -4 -51 -14 -67c-14 -22 -46 -36 -80 -36c-52 0 -92 33 -92 76v28v109c-1 48 5 71 22 89c17 17 44 28 72 28c27 0 52 -9 69 -26c21 -20 23 -29 23 -91zM371 212v-93
c0 -45 1 -50 10 -62c10 -14 30 -23 50 -23c22 0 42 10 52 26c6 11 8 22 8 54v109c0 49 -19 73 -58 73c-21 0 -40 -7 -50 -19c-11 -13 -12 -20 -12 -65zM536 653l-467 -659l-29 21l466 658z" />
    <glyph glyph-name="ampersand" unicode="&#x26;" horiz-adv-x="576" 
d="M447 137l102 -137h-52l-75 105c-87 -92 -126 -115 -190 -115c-103 0 -185 84 -185 188c0 81 39 129 166 206c-54 72 -62 89 -62 128c0 64 54 115 122 115c66 0 117 -49 117 -112c0 -35 -18 -73 -45 -96c-13 -11 -13 -11 -65 -47l142 -197c39 42 48 51 93 97l34 -33
c-48 -47 -55 -54 -102 -102zM253 409c71 45 86 63 86 105c0 40 -26 65 -67 65c-42 0 -70 -26 -70 -66c0 -18 5 -39 14 -53c2 -3 14 -20 37 -51zM392 143l-152 204c-7 -5 -14 -10 -20 -14c-59 -39 -81 -58 -97 -80c-17 -26 -26 -51 -26 -80c0 -74 59 -135 131 -135
c31 0 64 12 89 32c18 14 30 26 75 73z" />
    <glyph glyph-name="quoteright" unicode="&#x2019;" horiz-adv-x="213" 
d="M172 658l-98 -201l-39 17l94 206z" />
    <glyph glyph-name="parenleft" unicode="(" horiz-adv-x="287" 
d="M254 -201l-32 -35c-119 137 -175 281 -175 452c0 174 61 335 175 466l32 -36c-104 -125 -158 -269 -158 -425c0 -151 59 -310 158 -422z" />
    <glyph glyph-name="parenright" unicode=")" horiz-adv-x="287" 
d="M33 647l31 35c120 -137 176 -281 176 -452c0 -174 -61 -335 -176 -466l-31 36c104 125 158 269 158 424c0 152 -59 310 -158 423z" />
    <glyph glyph-name="asterisk" unicode="*" horiz-adv-x="427" 
d="M212 481l-77 -103l-29 22l77 102l-123 39l11 36l123 -36v124h37v-124l125 36l11 -36l-125 -39l74 -102l-27 -22z" />
    <glyph glyph-name="plus" unicode="+" 
d="M27 351h206v190h33v-190h206v-32h-206v-191h-33v191h-206v32z" />
    <glyph glyph-name="comma" unicode="," horiz-adv-x="215" 
d="M149 63l-107 -236l-39 16l98 240z" />
    <glyph glyph-name="hyphen" unicode="-" horiz-adv-x="200" 
d="M200 265v-47h-200v47h200z" />
    <glyph glyph-name="period" unicode="." horiz-adv-x="215" 
d="M108 77c24 0 41 -18 41 -42c0 -22 -18 -40 -41 -40s-41 18 -41 41c0 24 18 41 41 41z" />
    <glyph glyph-name="slash" unicode="/" horiz-adv-x="396" 
d="M352 667l-337 -887h-53l337 887h53z" />
    <glyph glyph-name="zero" unicode="0" 
d="M442 468v-268c0 -75 -12 -118 -43 -152c-34 -37 -87 -58 -150 -58c-64 0 -117 21 -151 59c-32 36 -40 69 -40 169v223c0 90 8 125 37 162c31 40 85 62 153 62c61 0 111 -17 146 -49c36 -34 48 -70 48 -148zM111 439v-221c0 -89 4 -105 30 -134c26 -27 66 -43 110 -43
c47 0 90 19 113 49c17 24 25 57 25 110v266c0 56 -11 85 -41 113c-26 23 -60 35 -98 35c-49 0 -91 -20 -115 -56c-19 -28 -24 -53 -24 -119z" />
    <glyph glyph-name="one" unicode="1" 
d="M271 571l-161 -115v54l214 157v-667h-53v571z" />
    <glyph glyph-name="two" unicode="2" 
d="M150 53h259v-53h-358l231 320c72 100 93 141 93 185c0 66 -53 112 -128 112c-50 0 -91 -23 -107 -60c-10 -20 -12 -36 -13 -72h-54c7 120 68 181 179 181c104 0 177 -65 177 -159c0 -54 -19 -97 -72 -171z" />
    <glyph glyph-name="three" unicode="3" 
d="M334 600h-254v53h364l-203 -250c8 1 15 1 19 1c105 0 190 -89 190 -200c0 -124 -93 -214 -221 -214c-98 0 -172 53 -199 142l50 17c25 -70 76 -108 145 -108c94 0 168 70 168 158c0 92 -69 154 -171 154c-35 0 -55 -6 -90 -27l-11 13z" />
    <glyph glyph-name="four" unicode="4" 
d="M319 157h-278v39l331 482v-468h87v-53h-87v-157h-53v157zM319 210v314l-217 -314h217z" />
    <glyph glyph-name="five" unicode="5" 
d="M140 600v-193c37 14 68 20 104 20c122 0 211 -91 211 -216c0 -129 -93 -221 -225 -221c-53 0 -98 15 -137 47c-29 23 -42 41 -59 82l54 20c15 -31 23 -43 34 -55c25 -26 66 -42 108 -42c95 0 168 74 168 171c0 96 -69 163 -168 163c-58 0 -94 -17 -143 -67v344h262v-52z
" />
    <glyph glyph-name="six" unicode="6" 
d="M348 653l-171 -269c33 14 48 17 80 17c116 0 204 -86 204 -200c0 -117 -95 -212 -212 -212c-118 0 -210 95 -210 216c0 41 10 71 39 118l204 330h66zM252 353c-87 0 -156 -66 -156 -151c0 -90 69 -162 154 -162c86 0 155 71 155 158c0 86 -68 155 -153 155z" />
    <glyph glyph-name="seven" unicode="7" 
d="M368 600h-277v53h358l-266 -653h-61z" />
    <glyph glyph-name="eight" unicode="8" 
d="M311 368c43 -11 63 -21 87 -44c36 -35 55 -81 55 -136c0 -116 -85 -199 -204 -199c-118 0 -202 80 -202 193c0 55 20 106 56 141c23 22 43 33 87 45c-40 13 -57 23 -76 43c-24 27 -38 63 -38 100c0 89 74 154 176 154c100 0 173 -65 173 -153c0 -40 -15 -78 -42 -105
c-18 -18 -35 -27 -72 -39zM251 616c-71 0 -120 -43 -120 -104c0 -63 52 -112 119 -112c63 0 120 52 120 110c0 57 -54 106 -119 106zM252 337c-81 0 -148 -67 -148 -148c0 -82 66 -149 146 -149s146 67 146 149c0 81 -65 148 -144 148z" />
    <glyph glyph-name="nine" unicode="9" 
d="M155 0l168 269c-35 -14 -51 -17 -81 -17c-114 0 -203 88 -203 203c0 117 95 210 214 210c117 0 207 -90 207 -208c0 -44 -9 -77 -33 -116l-205 -341h-67zM252 614c-88 0 -157 -69 -157 -157c0 -87 68 -156 153 -156c89 0 155 67 155 155c0 89 -66 158 -151 158z" />
    <glyph glyph-name="colon" unicode=":" horiz-adv-x="215" 
d="M108 77c24 0 41 -18 41 -42c0 -22 -18 -40 -41 -40s-41 18 -41 41c0 24 18 41 41 41zM108 344c24 0 41 -18 41 -42c0 -22 -18 -40 -41 -40s-41 18 -41 41c0 24 18 41 41 41z" />
    <glyph glyph-name="semicolon" unicode=";" horiz-adv-x="215" 
d="M149 63l-107 -236l-39 16l98 240zM111 344c24 0 41 -18 41 -42c0 -22 -18 -40 -41 -40s-41 18 -41 41c0 24 18 41 41 41z" />
    <glyph glyph-name="less" unicode="&#x3c;" 
d="M466 555v-54l-375 -167l375 -167v-53l-433 197v47z" />
    <glyph glyph-name="equal" unicode="=" 
d="M27 419h445v-32h-445v32zM27 282h445v-32h-445v32z" />
    <glyph glyph-name="greater" unicode="&#x3e;" 
d="M34 114v53l375 167l-375 167v54l433 -197v-48z" />
    <glyph glyph-name="question" unicode="?" horiz-adv-x="415" 
d="M196 138h-46v37v32c0 81 13 107 81 160c63 48 81 78 81 133c0 72 -49 125 -115 125c-62 0 -110 -45 -110 -102c0 -3 0 -9 1 -17h-50c0 102 61 166 157 166s169 -73 169 -170c0 -67 -29 -115 -105 -173c-62 -48 -64 -55 -63 -191zM176 77c24 0 41 -18 41 -42
c0 -22 -18 -40 -41 -40s-41 18 -41 41c0 24 18 41 41 41z" />
    <glyph glyph-name="at" unicode="@" horiz-adv-x="955" 
d="M610 90v50c-3 -5 -5 -8 -6 -10c-35 -53 -84 -81 -140 -81c-109 0 -185 85 -185 207c0 121 77 207 184 207c42 0 87 -17 119 -44c6 -6 15 -17 28 -34v71h46v-345c0 -14 8 -19 32 -19c35 0 60 5 81 18c43 25 69 87 69 167c0 198 -147 340 -352 340
c-211 0 -365 -148 -365 -349c0 -206 147 -348 361 -348c34 0 53 3 96 13v-50c-48 -9 -73 -12 -106 -12c-122 0 -242 55 -319 146c-56 65 -83 147 -83 247c0 124 42 223 125 297c77 67 180 105 288 105c231 0 403 -164 403 -385c0 -85 -29 -160 -75 -195
c-30 -24 -73 -37 -121 -37c-55 0 -80 13 -80 41zM465 416c-80 0 -135 -66 -135 -162c0 -91 57 -158 135 -158c81 0 143 75 143 172c0 86 -60 148 -143 148z" />
    <glyph glyph-name="A" unicode="A" horiz-adv-x="592" 
d="M457 175h-322l-71 -175h-57l262 667h62l254 -667h-63zM437 227l-139 364l-142 -364h281z" />
    <glyph glyph-name="B" unicode="B" horiz-adv-x="540" 
d="M90 667h175c124 0 202 -68 202 -176c0 -41 -13 -79 -36 -106c-16 -18 -31 -28 -68 -44c37 -7 54 -14 75 -29c38 -29 59 -75 59 -131c0 -63 -27 -117 -74 -147c-41 -26 -84 -34 -174 -34h-159v667zM147 616v-256h101c57 0 91 8 118 28c30 23 48 62 48 104
c0 49 -23 90 -59 107c-29 14 -55 17 -128 17h-80zM147 309v-258h93c83 0 111 5 145 23c37 21 56 57 56 106c0 88 -52 129 -166 129h-128z" />
    <glyph glyph-name="B" unicode="&#xe000;" horiz-adv-x="540" 
d="M90 667h175c124 0 202 -68 202 -176c0 -41 -13 -79 -36 -106c-16 -18 -31 -28 -68 -44c37 -7 54 -14 75 -29c38 -29 59 -75 59 -131c0 -63 -27 -117 -74 -147c-41 -26 -84 -34 -174 -34h-159v667zM147 616v-256h101c57 0 91 8 118 28c30 23 48 62 48 104
c0 49 -23 90 -59 107c-29 14 -55 17 -128 17h-80zM147 309v-258h93c83 0 111 5 145 23c37 21 56 57 56 106c0 88 -52 129 -166 129h-128z" />
    <glyph glyph-name="C" unicode="C" horiz-adv-x="628" 
d="M559 144l42 -37c-30 -41 -49 -58 -83 -78c-45 -27 -101 -41 -157 -41c-91 0 -170 34 -226 97c-55 63 -88 155 -88 248c0 199 133 346 313 346c98 0 176 -38 241 -119l-42 -34c-30 33 -45 46 -65 60c-38 26 -87 41 -134 41c-146 0 -254 -125 -254 -295
c0 -169 109 -292 257 -292c79 0 138 31 196 104z" />
    <glyph glyph-name="D" unicode="D" horiz-adv-x="618" 
d="M90 0v667h171c191 0 310 -124 310 -320c0 -219 -125 -347 -337 -347h-144zM147 616v-565h31c134 0 185 11 237 51c66 51 98 132 98 245c0 174 -90 269 -255 269h-111z" />
    <glyph glyph-name="E" unicode="E" horiz-adv-x="478" 
d="M147 616v-253h278v-51h-278v-261h278v-51h-335v667h335v-51h-278z" />
    <glyph glyph-name="E" unicode="&#xe001;" horiz-adv-x="478" 
d="M147 616v-253h278v-51h-278v-261h278v-51h-335v667h335v-51h-278z" />
    <glyph glyph-name="F" unicode="F" horiz-adv-x="451" 
d="M147 616v-253h274v-51h-274v-312h-57v667h331v-51h-274z" />
    <glyph glyph-name="G" unicode="G" horiz-adv-x="722" 
d="M365 354h310v-41c0 -64 -11 -113 -35 -160c-54 -104 -154 -165 -272 -165c-186 0 -321 144 -321 343c0 205 133 348 323 348c96 0 177 -40 239 -118l-42 -35c-28 30 -40 43 -58 55c-40 30 -90 46 -141 46c-149 0 -263 -127 -263 -294c0 -166 112 -293 258 -293
c82 0 168 46 214 114c30 44 41 83 43 149h-255v51z" />
    <glyph glyph-name="H" unicode="H" horiz-adv-x="656" 
d="M147 306v-306h-57v667h57v-310h362v310h57v-667h-57v306h-362z" />
    <glyph glyph-name="I" unicode="I" horiz-adv-x="237" 
d="M147 667v-667h-57v667h57z" />
    <glyph glyph-name="J" unicode="J" horiz-adv-x="368" 
d="M291 667v-476c-6 -143 -83 -198 -268 -191v48c25 -1 36 -1 49 -1c52 0 91 12 117 36c34 30 45 70 45 161v372h-211v51h268z" />
    <glyph glyph-name="K" unicode="K" horiz-adv-x="527" 
d="M147 313v-313h-57v667h57v-316l296 316h70l-310 -335l310 -332h-79z" />
    <glyph glyph-name="L" unicode="L" horiz-adv-x="415" 
d="M147 57h241v-57h-298v667h57v-610z" />
    <glyph glyph-name="M" unicode="M" horiz-adv-x="818" 
d="M147 527v-527h-57v667h46l272 -550l275 550h45v-667h-57v526l-263 -526z" />
    <glyph glyph-name="N" unicode="N" horiz-adv-x="679" 
d="M147 555v-555h-57v667h47l395 -547v547h57v-667h-43z" />
    <glyph glyph-name="O" unicode="O" horiz-adv-x="731" 
d="M367 679c90 0 179 -43 242 -117c50 -59 74 -136 74 -237c0 -107 -39 -199 -111 -259c-60 -50 -134 -78 -207 -78c-97 0 -194 49 -254 128c-41 54 -64 130 -64 214c0 106 33 192 98 256c60 59 141 93 222 93zM366 627c-150 0 -261 -124 -261 -293
c0 -171 108 -294 259 -294c72 0 143 32 192 86c41 47 69 127 69 203c0 98 -25 168 -80 222c-48 47 -116 76 -179 76z" />
    <glyph glyph-name="P" unicode="P" horiz-adv-x="520" 
d="M147 268v-268h-57v667h161c79 0 137 -16 177 -48c43 -35 66 -88 66 -150c0 -66 -26 -124 -73 -160c-37 -29 -85 -41 -161 -41h-113zM147 319h102c39 0 67 3 92 12c59 18 97 73 97 137c0 66 -39 119 -102 137c-29 8 -58 11 -106 11h-83v-297z" />
    <glyph glyph-name="Q" unicode="Q" horiz-adv-x="737" 
d="M698 27l-39 -38l-76 84c-38 -32 -56 -44 -86 -58c-41 -17 -86 -27 -128 -27c-88 0 -176 40 -239 106c-51 55 -80 142 -80 237c0 106 32 192 96 255c61 60 141 93 223 93c87 0 174 -39 234 -104c55 -59 85 -146 85 -241c0 -91 -20 -154 -70 -221zM532 203l48 -50
c35 60 48 108 48 177c0 97 -31 178 -89 230c-49 43 -109 67 -170 67c-79 0 -156 -39 -205 -104c-36 -48 -56 -114 -56 -189c0 -173 107 -294 260 -294c70 0 119 20 178 73l-50 56z" />
    <glyph glyph-name="R" unicode="R" horiz-adv-x="548" 
d="M147 288v-288h-57v667h171c130 0 213 -73 213 -188c0 -81 -42 -146 -114 -176c-27 -11 -63 -16 -113 -16c-4 0 -13 0 -23 1l299 -288h-78zM147 332h96c112 0 173 50 173 144c0 93 -54 140 -159 140h-110v-284z" />
    <glyph glyph-name="S" unicode="S" horiz-adv-x="474" 
d="M41 170h53c2 -36 7 -55 19 -76c20 -34 61 -55 112 -55c89 0 149 55 149 136c0 66 -36 99 -149 135c-81 27 -102 37 -130 63c-33 30 -51 73 -51 123c0 108 77 183 188 183c112 0 184 -72 184 -184h-55c-1 39 -5 57 -18 78c-21 34 -63 55 -112 55c-75 0 -130 -54 -130 -129
c0 -35 13 -66 37 -85c21 -17 45 -27 122 -54c70 -25 102 -42 128 -71c26 -30 41 -71 41 -114c0 -110 -82 -187 -199 -187c-65 0 -113 17 -145 54c-28 31 -44 72 -44 112v16z" />
    <glyph glyph-name="S" unicode="&#xe002;" horiz-adv-x="474" 
d="M41 170h53c2 -36 7 -55 19 -76c20 -34 61 -55 112 -55c89 0 149 55 149 136c0 66 -36 99 -149 135c-81 27 -102 37 -130 63c-33 30 -51 73 -51 123c0 108 77 183 188 183c112 0 184 -72 184 -184h-55c-1 39 -5 57 -18 78c-21 34 -63 55 -112 55c-75 0 -130 -54 -130 -129
c0 -35 13 -66 37 -85c21 -17 45 -27 122 -54c70 -25 102 -42 128 -71c26 -30 41 -71 41 -114c0 -110 -82 -187 -199 -187c-65 0 -113 17 -145 54c-28 31 -44 72 -44 112v16z" />
    <glyph glyph-name="T" unicode="T" horiz-adv-x="434" 
d="M245 616v-616h-57v616h-175v51h407v-51h-175z" />
    <glyph glyph-name="U" unicode="U" horiz-adv-x="635" 
d="M134 667v-400c0 -97 14 -145 52 -179c31 -28 85 -48 129 -48s96 20 130 50c43 40 54 76 54 180v397h60v-400c0 -102 -14 -151 -56 -200c-44 -51 -110 -79 -185 -79c-76 0 -145 30 -190 84c-40 48 -51 90 -51 195v400h57z" />
    <glyph glyph-name="V" unicode="V" horiz-adv-x="542" 
d="M269 94l205 573h61l-242 -667h-48l-238 667h61z" />
    <glyph glyph-name="W" unicode="W" horiz-adv-x="862" 
d="M623 110l175 557h58l-212 -667h-41l-170 569l-169 -569h-42l-215 667h60l176 -557l167 557h50z" />
    <glyph glyph-name="X" unicode="X" horiz-adv-x="537" 
d="M270 283l-191 -283h-72l230 333l-230 334h72l191 -286l193 286h68l-227 -334l227 -333h-68z" />
    <glyph glyph-name="Y" unicode="Y" horiz-adv-x="515" 
d="M288 293v-293h-57v293l-234 374h67l194 -314l193 314h67z" />
    <glyph glyph-name="Z" unicode="Z" horiz-adv-x="532" 
d="M112 51h369v-51h-468l412 616h-367v51h467z" />
    <glyph glyph-name="bracketleft" unicode="[" horiz-adv-x="287" 
d="M84 667h133v-37h-86v-813h86v-37h-133v887z" />
    <glyph glyph-name="backslash" unicode="\" horiz-adv-x="396" 
d="M43 667h53l337 -887h-53z" />
    <glyph glyph-name="bracketright" unicode="]" horiz-adv-x="287" 
d="M203 667v-887h-133v37h86v813h-86v37h133z" />
    <glyph glyph-name="asciicircum" unicode="^" 
d="M90 382h-53l182 286h62l182 -286h-54l-160 249z" />
    <glyph glyph-name="underscore" unicode="_" 
d="M0 -77h500v-38h-500v38z" />
    <glyph glyph-name="quoteleft" unicode="&#x2018;" horiz-adv-x="213" 
d="M41 479l98 201l39 -18l-93 -205z" />
    <glyph glyph-name="a" unicode="a" horiz-adv-x="561" 
d="M428 375v85h50v-460h-50v102c-46 -75 -101 -110 -172 -110c-124 0 -213 99 -213 238s88 238 212 238c73 0 129 -30 173 -93zM259 421c-55 0 -93 -18 -123 -59c-26 -36 -41 -85 -41 -135c0 -108 69 -188 161 -188c96 0 173 89 173 198s-69 184 -170 184z" />
    <glyph glyph-name="b" unicode="b" horiz-adv-x="557" 
d="M133 89v-89h-50v667h50v-298c47 68 100 99 169 99c127 0 212 -97 212 -240c0 -138 -88 -236 -211 -236c-71 0 -123 30 -170 97zM300 421c-99 0 -168 -78 -168 -189c0 -117 65 -193 165 -193c99 0 165 75 165 187c0 114 -67 195 -162 195z" />
    <glyph glyph-name="b" unicode="&#xe003;" horiz-adv-x="557" 
d="M133 89v-89h-50v667h50v-298c47 68 100 99 169 99c127 0 212 -97 212 -240c0 -138 -88 -236 -211 -236c-71 0 -123 30 -170 97zM300 421c-99 0 -168 -78 -168 -189c0 -117 65 -193 165 -193c99 0 165 75 165 187c0 114 -67 195 -162 195z" />
    <glyph glyph-name="c" unicode="c" horiz-adv-x="451" 
d="M393 96l31 -36c-49 -48 -98 -68 -164 -68c-128 0 -217 98 -217 238s92 238 222 238c64 0 115 -21 159 -65l-31 -34c-38 35 -81 52 -128 52c-101 0 -170 -77 -170 -189c0 -115 67 -193 166 -193c52 0 94 18 132 57z" />
    <glyph glyph-name="d" unicode="d" horiz-adv-x="557" 
d="M424 381v286h50v-667h-50v89c-50 -68 -100 -97 -169 -97c-124 0 -212 98 -212 236s88 240 209 240c33 0 68 -8 98 -23s47 -29 74 -64zM262 421c-100 0 -167 -78 -167 -194c0 -111 66 -188 161 -188c98 0 169 81 169 192c0 114 -65 190 -163 190z" />
    <glyph glyph-name="e" unicode="e" horiz-adv-x="531" 
d="M493 209h-396c4 -44 12 -67 32 -96c33 -47 83 -74 139 -74c63 0 124 36 155 90l41 -22c-34 -69 -112 -115 -195 -115c-132 0 -226 98 -226 236c0 140 94 240 226 240c128 0 226 -99 226 -227c0 -6 -1 -18 -2 -32zM99 256h341c-3 40 -10 62 -27 89c-32 47 -86 76 -145 76
s-113 -29 -142 -78c-15 -24 -22 -45 -27 -87z" />
    <glyph glyph-name="f" unicode="f" horiz-adv-x="245" 
d="M140 413v-413h-50v413h-69v47h69v81c0 42 9 71 29 93c20 21 50 34 81 34c4 0 10 0 18 -1v-42c-61 -7 -76 -23 -78 -84v-81h78v-47h-78z" />
    <glyph glyph-name="g" unicode="g" horiz-adv-x="560" 
d="M427 370v90h50v-482c0 -133 -82 -213 -219 -213c-83 0 -148 27 -191 80l38 37c21 -23 31 -32 44 -40c25 -16 71 -28 112 -28c52 0 102 19 131 49c24 26 35 62 35 115v123c-24 -39 -37 -55 -59 -72c-31 -23 -74 -37 -115 -37c-119 0 -210 102 -210 237c0 73 27 144 73 187
c35 35 82 52 140 52c72 0 121 -28 171 -98zM263 421c-99 0 -168 -78 -168 -189s70 -193 165 -193c47 0 94 23 128 62c22 27 37 80 37 132c0 64 -9 96 -36 129c-31 36 -79 59 -126 59z" />
    <glyph glyph-name="h" unicode="h" horiz-adv-x="497" 
d="M133 667v-278c43 54 88 79 145 79c40 0 83 -16 106 -41c23 -24 33 -59 33 -115v-312h-50v316c0 68 -33 105 -95 105c-41 0 -79 -18 -106 -50c-25 -30 -33 -56 -33 -104v-267h-50v667h50z" />
    <glyph glyph-name="i" unicode="i" horiz-adv-x="217" 
d="M133 460v-460h-50v460h50zM109 627c21 0 37 -17 37 -39c0 -20 -17 -37 -37 -37c-21 0 -38 17 -38 38s17 38 38 38z" />
    <glyph glyph-name="j" unicode="j" horiz-adv-x="217" 
d="M133 460v-525c0 -59 -10 -92 -36 -122s-65 -47 -104 -47h-15v48h6c58 0 99 50 99 121v525h50zM109 627c21 0 37 -17 37 -39c0 -20 -17 -37 -37 -37c-21 0 -38 17 -38 38s17 38 38 38z" />
    <glyph glyph-name="k" unicode="k" horiz-adv-x="428" 
d="M133 213v-213h-50v667h50v-422l213 215h68l-229 -227l229 -233h-69z" />
    <glyph glyph-name="l" unicode="l" horiz-adv-x="217" 
d="M133 0h-50v667h50v-667z" />
    <glyph glyph-name="m" unicode="m" horiz-adv-x="761" 
d="M84 460h49v-67c38 53 77 75 132 75c34 0 65 -10 87 -28c16 -13 25 -27 37 -59c35 62 78 87 149 87c55 0 97 -18 120 -51c19 -29 23 -51 23 -126v-291h-50v276c0 76 0 79 -14 102c-15 27 -49 43 -92 43c-76 0 -118 -51 -118 -145v-276h-50v276c0 63 -6 92 -24 114
c-18 21 -43 31 -77 31c-76 0 -123 -56 -123 -145v-276h-50z" />
    <glyph glyph-name="n" unicode="n" horiz-adv-x="497" 
d="M83 460h50v-69c44 54 87 77 143 77c41 0 77 -13 102 -36c29 -26 39 -56 39 -112v-320h-50v298c0 48 -5 74 -19 92c-15 19 -44 31 -78 31c-39 0 -73 -14 -100 -42c-28 -29 -37 -53 -37 -97v-282h-50v460z" />
    <glyph glyph-name="o" unicode="o" horiz-adv-x="537" 
d="M270 468c69 0 131 -29 174 -81c35 -43 51 -92 51 -157c0 -134 -100 -238 -228 -238c-67 0 -132 30 -174 80c-32 38 -50 96 -50 160c0 75 22 132 67 174c42 40 100 62 160 62zM270 421c-105 0 -175 -77 -175 -192c0 -113 70 -190 174 -190c101 0 174 80 174 191
c0 62 -17 108 -52 142c-31 30 -77 49 -121 49z" />
    <glyph glyph-name="p" unicode="p" horiz-adv-x="559" 
d="M83 460h50v-98c47 77 95 106 176 106c125 0 208 -91 208 -230c0 -147 -84 -246 -210 -246c-35 0 -69 8 -100 24s-46 30 -74 67v-303h-50v680zM303 421c-102 0 -170 -80 -170 -199c0 -109 67 -183 167 -183c99 0 164 77 164 194c0 61 -13 103 -43 136
c-29 32 -74 52 -118 52z" />
    <glyph glyph-name="q" unicode="q" horiz-adv-x="556" 
d="M423 460h50v-680h-50v311c-47 -69 -99 -99 -171 -99c-65 0 -126 30 -165 80c-28 37 -44 95 -44 162c0 143 84 234 214 234c73 0 124 -31 166 -100v92zM259 421c-97 0 -164 -78 -164 -192c0 -113 66 -190 162 -190c98 0 163 75 163 188c0 64 -16 111 -47 145
c-30 30 -73 49 -114 49z" />
    <glyph glyph-name="r" unicode="r" horiz-adv-x="309" 
d="M83 460h50v-83c15 33 25 46 43 61c24 19 59 30 93 30h20v-49h-17c-85 0 -144 -75 -139 -179v-240h-50v460z" />
    <glyph glyph-name="s" unicode="s" horiz-adv-x="407" 
d="M356 339h-52c0 53 -38 83 -103 83c-62 0 -101 -30 -101 -77c0 -48 24 -67 109 -88c62 -15 92 -29 115 -53c22 -22 36 -55 36 -87c0 -75 -62 -125 -157 -125c-100 0 -155 45 -165 136h51c4 -57 47 -91 116 -91c62 0 103 32 103 80c0 46 -31 71 -115 91
c-54 13 -83 26 -106 47c-24 21 -39 54 -39 87c0 75 63 126 154 126c93 0 150 -48 154 -129z" />
    <glyph glyph-name="s" unicode="&#xe004;" horiz-adv-x="407" 
d="M356 339h-52c0 53 -38 83 -103 83c-62 0 -101 -30 -101 -77c0 -48 24 -67 109 -88c62 -15 92 -29 115 -53c22 -22 36 -55 36 -87c0 -75 -62 -125 -157 -125c-100 0 -155 45 -165 136h51c4 -57 47 -91 116 -91c62 0 103 32 103 80c0 46 -31 71 -115 91
c-54 13 -83 26 -106 47c-24 21 -39 54 -39 87c0 75 63 126 154 126c93 0 150 -48 154 -129z" />
    <glyph glyph-name="t" unicode="t" horiz-adv-x="247" 
d="M137 413v-341c1 -23 6 -27 33 -27h42v-45h-54c-51 0 -70 18 -71 63v350h-70v47h70v155h50v-155h75v-47h-75z" />
    <glyph glyph-name="u" unicode="u" horiz-adv-x="470" 
d="M352 460h50v-297c0 -60 -11 -91 -43 -122c-32 -32 -76 -49 -123 -49c-101 0 -168 68 -168 171v297h50v-297c0 -74 47 -124 117 -124c35 0 71 15 92 38c18 20 25 42 25 86v297z" />
    <glyph glyph-name="v" unicode="v" horiz-adv-x="419" 
d="M358 460h51l-175 -460h-54l-170 460h52l146 -392z" />
    <glyph glyph-name="w" unicode="w" horiz-adv-x="673" 
d="M612 460h51l-170 -460h-37l-119 384l-125 -384h-40l-162 460h51l131 -369l120 369h50l115 -369z" />
    <glyph glyph-name="x" unicode="x" horiz-adv-x="428" 
d="M213 189l-143 -189h-63l174 228l-174 232h63l143 -193l148 193h61l-178 -232l167 -228h-61z" />
    <glyph glyph-name="y" unicode="y" horiz-adv-x="422" 
d="M202 84l154 376h56l-283 -688h-55l101 245l-165 443h53z" />
    <glyph glyph-name="y" unicode="&#xe006;" horiz-adv-x="422" 
d="M202 84l154 376h56l-283 -688h-55l101 245l-165 443h53z" />
    <glyph glyph-name="z" unicode="z" horiz-adv-x="391" 
d="M116 47h229v-47h-320l263 413h-233v47h321z" />
    <glyph glyph-name="braceleft" unicode="{" 
d="M261 539v-181c-2 -66 -14 -92 -54 -110c38 -18 54 -51 54 -114v-173c0 -76 23 -101 94 -102v-44h-8c-107 0 -139 34 -139 150v166c0 59 -15 84 -58 98v39c43 15 58 39 58 96v184c0 98 37 134 137 134h10v-46c-69 -2 -94 -28 -94 -97z" />
    <glyph glyph-name="bar" unicode="|" 
d="M223 667h53v-834h-53v834z" />
    <glyph glyph-name="braceright" unicode="}" 
d="M239 -42v181c1 66 14 92 54 110c-39 19 -54 50 -54 114v172c-1 77 -23 101 -94 103v44h8c107 0 139 -35 139 -150v-166c0 -59 15 -84 58 -98v-39c-43 -15 -58 -39 -58 -96v-184c0 -98 -37 -134 -137 -134h-10v46c69 2 94 28 94 97z" />
    <glyph glyph-name="asciitilde" unicode="~" horiz-adv-x="667" 
d="M126 590l-31 24c35 70 78 104 131 104c28 0 60 -11 117 -42c57 -30 74 -36 99 -36c39 0 67 22 99 80l31 -24c-32 -68 -79 -104 -135 -104c-29 0 -45 6 -128 50c-38 20 -63 28 -85 28c-38 0 -65 -23 -98 -80z" />
    <glyph glyph-name="exclamdown" unicode="&#xa1;" horiz-adv-x="242" 
d="M95 -203v530h52v-530h-52zM121 469c23 0 41 -18 41 -41c0 -24 -18 -41 -41 -41c-24 0 -41 18 -41 42c0 22 18 40 41 40z" />
    <glyph glyph-name="cent" unicode="&#xa2;" 
d="M292 523v-383c41 0 81 19 114 55l31 -35c-43 -43 -79 -60 -145 -67v-77h-38v77c-130 22 -198 103 -198 232c0 86 33 160 89 203c31 23 58 33 109 42v81h38v-81c55 -2 115 -31 145 -70l-31 -33c-36 34 -75 54 -114 56zM254 140v383c-94 -14 -148 -85 -148 -191
c0 -107 56 -180 148 -192z" />
    <glyph glyph-name="sterling" unicode="&#xa3;" 
d="M203 357h155v-43h-120c36 -37 50 -66 50 -104c0 -40 -18 -75 -58 -117c17 -5 18 -6 52 -22c39 -18 57 -24 74 -24c32 0 52 21 54 58h54c-3 -28 -7 -44 -20 -62c-20 -29 -58 -51 -91 -51c-23 0 -46 8 -102 34c-50 23 -64 28 -84 28c-32 0 -49 -19 -50 -54h-54
c-2 62 49 111 110 105c44 33 61 62 61 100c0 36 -15 63 -61 109h-110v43h72c-43 53 -55 81 -55 130c0 101 82 178 189 178c57 0 111 -25 143 -68c19 -25 26 -49 27 -92h-52v13c0 51 -60 98 -125 98c-69 0 -127 -56 -127 -124c0 -40 20 -80 68 -135z" />
    <glyph glyph-name="yen" unicode="&#xa5;" 
d="M155 420l-124 233h63l158 -305l152 305h64l-121 -233h101v-43l-123 1l-47 -91v-7h150v-43h-150v-237h-53v237h-154v43h154v7l-47 90h-127v43h104z" />
    <glyph glyph-name="section" unicode="&#xa7;" 
d="M412 543h-52c-5 54 -46 90 -102 90c-58 0 -102 -41 -102 -95c0 -25 11 -50 29 -68c23 -21 23 -21 107 -48c94 -30 145 -95 145 -184c0 -74 -36 -127 -108 -159c57 -42 76 -75 76 -128c0 -92 -69 -158 -166 -158c-56 0 -100 19 -133 56c-28 31 -45 72 -45 107v14h51
c4 -81 52 -130 129 -130c65 0 113 45 113 108c0 28 -10 50 -34 71c-25 23 -37 28 -110 46c-96 24 -148 84 -148 171s40 146 121 176c-48 25 -76 73 -76 128c0 79 65 141 147 141c88 0 153 -56 158 -138zM251 376c-35 0 -74 -17 -103 -45c-23 -23 -35 -54 -35 -88
c0 -81 56 -136 137 -136s137 55 137 136c0 34 -12 65 -35 88c-27 26 -68 45 -101 45z" />
    <glyph glyph-name="currency" unicode="&#xa4;" horiz-adv-x="679" 
d="M77 109l88 91c-34 44 -51 91 -51 143c0 51 14 89 52 141l-92 91l30 30l91 -91c53 39 92 54 145 54c52 0 92 -15 143 -54l92 91l30 -30l-91 -90c36 -48 52 -91 52 -144c0 -51 -14 -90 -51 -141l90 -91l-29 -30l-91 91c-44 -36 -91 -53 -143 -53c-50 0 -93 15 -145 53
l-90 -91zM342 522c-100 0 -179 -79 -179 -180c0 -98 79 -178 177 -178s177 80 177 178s-79 180 -175 180z" />
    <glyph glyph-name="quotesingle" unicode="'" horiz-adv-x="169" 
d="M106 400h-43l-7 267h58z" />
    <glyph glyph-name="quotedblleft" unicode="&#x201c;" horiz-adv-x="386" 
d="M208 444l109 236l38 -18l-100 -239zM41 444l108 236l39 -18l-101 -240z" />
    <glyph glyph-name="guillemotleft" unicode="&#xab;" horiz-adv-x="412" 
d="M95 234l104 -165h-48l-104 165l104 172h48zM255 234l104 -165h-48l-104 165l104 172h48z" />
    <glyph glyph-name="guilsinglleft" unicode="&#x2039;" horiz-adv-x="252" 
d="M95 234l104 -165h-48l-104 165l104 172h48z" />
    <glyph glyph-name="guilsinglright" unicode="&#x203a;" horiz-adv-x="252" 
d="M157 241l-104 165h48l104 -165l-104 -172h-48z" />
    <glyph glyph-name="endash" unicode="&#x2013;" 
d="M416 265v-47h-333v47h333z" />
    <glyph glyph-name="periodcentered" unicode="&#xb7;" horiz-adv-x="215" 
d="M108 283c24 0 41 -18 41 -42c0 -22 -18 -40 -41 -40s-41 18 -41 41c0 24 18 41 41 41z" />
    <glyph glyph-name="paragraph" unicode="&#xb6;" 
d="M239 -105v414h-16c-109 1 -183 73 -183 178c0 65 32 124 82 153c30 18 73 27 122 27h170v-772h-47v739h-81v-739h-47z" />
    <glyph glyph-name="bullet" unicode="&#x2022;" horiz-adv-x="667" 
d="M336 479c74 0 135 -63 135 -139c0 -78 -61 -140 -137 -140s-138 63 -138 139c0 78 62 140 140 140z" />
    <glyph glyph-name="quotedblbase" unicode="&#x201e;" horiz-adv-x="386" 
d="M177 62l-108 -237l-38 18l100 239zM345 62l-109 -237l-39 18l101 240z" />
    <glyph glyph-name="quotedblright" unicode="&#x201d;" horiz-adv-x="386" 
d="M177 659l-108 -237l-38 18l100 239zM345 659l-109 -237l-39 18l101 240z" />
    <glyph glyph-name="guillemotright" unicode="&#xbb;" horiz-adv-x="412" 
d="M317 248l-104 164h48l104 -164l-104 -172h-48zM157 248l-104 164h48l104 -164l-104 -172h-48z" />
    <glyph glyph-name="ellipsis" unicode="&#x2026;" horiz-adv-x="645" 
d="M108 77c24 0 41 -18 41 -42c0 -22 -18 -40 -41 -40s-41 18 -41 41c0 24 18 41 41 41zM323 77c24 0 41 -18 41 -42c0 -22 -18 -40 -41 -40s-41 18 -41 41c0 24 18 41 41 41zM538 77c24 0 41 -18 41 -42c0 -22 -18 -40 -41 -40s-41 18 -41 41c0 24 18 41 41 41z" />
    <glyph glyph-name="questiondown" unicode="&#xbf;" horiz-adv-x="415" 
d="M218 325h47l-1 -37v-32c1 -81 -13 -107 -81 -160c-63 -48 -81 -78 -81 -132c0 -73 49 -126 115 -126c62 0 110 45 110 103c0 3 0 9 -1 17h50c0 -102 -61 -167 -156 -167c-97 0 -170 73 -170 170c0 67 29 115 105 173c62 49 64 53 63 191zM239 469c23 0 41 -18 41 -41
c0 -24 -18 -41 -41 -41c-24 0 -41 18 -41 42c0 22 18 40 41 40z" />
    <glyph glyph-name="grave" unicode="`" 
d="M197 653l82 -128h-42l-110 128h70z" />
    <glyph glyph-name="acute" unicode="&#xb4;" 
d="M303 653h70l-110 -128h-42z" />
    <glyph glyph-name="tilde" unicode="&#x2dc;" 
d="M373 631l35 -25c-31 -46 -60 -69 -90 -69c-20 0 -29 4 -84 39c-17 11 -28 15 -39 15c-22 0 -38 -13 -55 -42l-35 30c30 40 61 61 90 61c26 0 35 -4 94 -44c14 -9 19 -11 29 -11c21 0 38 14 55 46z" />
    <glyph glyph-name="macron" unicode="&#xaf;" 
d="M384 609v-41h-267v41h267z" />
    <glyph glyph-name="dieresis" unicode="&#xa8;" 
d="M154 624c21 0 36 -16 36 -38c0 -20 -16 -36 -36 -36c-22 0 -37 16 -37 37c0 22 15 37 37 37zM347 624c21 0 36 -16 36 -38c0 -20 -16 -36 -36 -36c-22 0 -37 16 -37 37c0 22 15 37 37 37z" />
    <glyph glyph-name="cedilla" unicode="&#xb8;" 
d="M197 -216l-22 29c56 35 84 73 101 138l50 -18c-36 -78 -65 -111 -129 -149z" />
    <glyph glyph-name="emdash" unicode="&#x2014;" horiz-adv-x="598" 
d="M598 265v-47h-598v47h598z" />
    <glyph glyph-name="AE" unicode="&#xc6;" horiz-adv-x="793" 
d="M466 312v-261h276v-51h-333v185h-249l-104 -185h-60l380 667h366v-51h-276v-253h276v-51h-276zM409 236v393l-221 -393h221z" />
    <glyph glyph-name="ordfeminine" unicode="&#xaa;" horiz-adv-x="365" 
d="M269 503v42h39v-278h-39v50c-27 -36 -61 -55 -102 -55c-80 0 -136 60 -136 144s56 144 135 144c42 0 78 -16 103 -47zM169 515c-59 0 -98 -45 -98 -111c0 -61 41 -107 96 -107c57 0 103 51 103 113c0 63 -41 105 -101 105z" />
    <glyph glyph-name="Oslash" unicode="&#xd8;" horiz-adv-x="728" 
d="M153 73l-76 -85l-24 22l77 86c-61 73 -83 136 -83 234c0 103 29 184 87 246c62 66 146 103 231 103c76 0 147 -28 213 -84l70 77l25 -21l-72 -80c59 -79 80 -140 80 -236c0 -105 -33 -193 -95 -254c-60 -60 -140 -93 -224 -93c-81 0 -134 22 -209 85zM564 529l-375 -416
c54 -50 108 -73 172 -73c155 0 261 121 261 297c0 80 -15 130 -58 192zM166 137l376 417c-56 49 -114 73 -176 73c-153 0 -261 -122 -261 -293c0 -80 18 -137 61 -197z" />
    <glyph glyph-name="OE" unicode="&#x152;" horiz-adv-x="996" 
d="M667 312v-261h275v-51h-332v135c-32 -50 -51 -70 -86 -94c-50 -35 -107 -53 -167 -53c-83 0 -165 36 -223 97c-55 59 -87 153 -87 255c0 200 130 339 318 339c59 0 111 -15 158 -45c37 -23 57 -44 87 -91v124h332v-51h-275v-253h275v-51h-275zM362 627
c-154 0 -257 -116 -257 -289c0 -172 107 -298 253 -298c69 0 139 32 186 86c41 46 67 125 67 201c0 183 -97 300 -249 300z" />
    <glyph glyph-name="ordmasculine" unicode="&#xba;" horiz-adv-x="350" 
d="M176 550c84 0 143 -60 143 -144c0 -81 -64 -144 -145 -144c-84 0 -143 59 -143 145c0 85 59 143 145 143zM176 515c-63 0 -105 -44 -105 -110c0 -64 42 -108 104 -108c61 0 104 45 104 109c0 65 -42 109 -103 109z" />
    <glyph glyph-name="ae" unicode="&#xe6;" horiz-adv-x="917" 
d="M811 129l40 -22c-40 -76 -108 -115 -201 -115c-79 0 -133 31 -169 97v-89h-50v100c-43 -72 -100 -108 -173 -108c-127 0 -215 98 -215 239c0 139 87 237 212 237c44 0 91 -15 125 -39c18 -13 30 -25 51 -55v86h50v-86c24 38 39 53 70 69c31 17 66 25 105 25
c82 0 144 -34 187 -101c25 -41 38 -84 38 -130c0 -6 0 -16 -1 -28h-399c7 -53 17 -79 41 -109c32 -37 81 -61 129 -61c37 0 81 15 114 39c18 14 28 25 46 51zM481 256h346c-12 102 -78 165 -172 165c-59 0 -114 -28 -145 -74c-18 -27 -25 -48 -29 -91zM263 421
c-64 0 -107 -23 -136 -73c-21 -35 -32 -78 -32 -122c0 -107 70 -187 166 -187s171 86 171 196s-69 186 -169 186z" />
    <glyph glyph-name="oslash" unicode="&#xf8;" horiz-adv-x="537" 
d="M119 45l-52 -59l-27 23l56 60c-40 54 -54 97 -54 162c0 75 23 135 69 177c43 40 97 61 155 61c55 0 104 -17 146 -52l64 70l24 -25l-62 -68c41 -53 56 -96 56 -160c0 -143 -95 -242 -232 -242c-53 0 -100 17 -143 53zM403 356l-249 -273c32 -29 70 -44 115 -44
c100 0 173 81 173 194c0 48 -10 79 -39 123zM131 109l247 271c-33 29 -68 42 -113 42c-101 0 -171 -79 -171 -192c0 -50 10 -81 37 -121z" />
    <glyph glyph-name="oe" unicode="&#x153;" horiz-adv-x="931" 
d="M831 130l38 -21c-22 -37 -35 -53 -61 -72c-39 -28 -89 -45 -136 -45c-52 0 -106 20 -145 53c-26 21 -38 40 -56 85c-19 -46 -32 -65 -59 -88c-39 -32 -90 -50 -144 -50c-131 0 -225 98 -225 236c0 141 93 240 226 240c53 0 100 -16 140 -47c31 -24 44 -42 62 -84
c22 47 36 66 69 89c38 27 86 42 133 42c107 0 195 -74 216 -181c5 -23 6 -34 6 -78h-399c5 -49 13 -74 36 -102c32 -41 87 -68 138 -68c36 0 81 14 110 35c17 12 29 25 51 56zM497 256h347c-4 45 -10 66 -28 92c-31 45 -86 73 -146 73c-55 0 -100 -22 -135 -63
c-25 -31 -34 -54 -38 -102zM271 421c-104 0 -176 -78 -176 -190c0 -114 72 -192 176 -192c103 0 176 80 176 191c0 112 -73 191 -176 191z" />
    <glyph glyph-name="germandbls" unicode="&#xdf;" horiz-adv-x="476" 
d="M87 413h-57v47h57v60c0 96 55 148 156 148c47 0 83 -12 108 -37c27 -26 44 -67 44 -107c0 -30 -12 -69 -30 -92c-13 -18 -28 -29 -64 -45c39 -9 57 -17 77 -36c36 -33 56 -85 56 -146c0 -127 -72 -213 -179 -213c-32 0 -49 5 -74 19l18 41c35 -12 44 -14 62 -14
c72 0 121 67 121 163c0 104 -49 155 -146 155v52c34 4 49 9 65 21c26 19 42 55 42 91c0 59 -42 101 -101 101c-33 0 -67 -13 -84 -33c-14 -15 -21 -38 -21 -68v-520h-50v413z" />
    <glyph glyph-name="onesuperior" unicode="&#xb9;" horiz-adv-x="327" 
d="M173 594l-100 -68v41l141 98v-404h-41v333z" />
    <glyph glyph-name="logicalnot" unicode="&#xac;" 
d="M414 0v226h-381v47h433v-273h-52z" />
    <glyph glyph-name="mu" unicode="&#xb5;" 
d="M58 -164v644h47v-279c0 -73 8 -103 38 -133c26 -26 62 -41 100 -41c90 0 152 76 152 185v268h47v-480h-47v101c-31 -78 -80 -115 -153 -115c-61 0 -102 23 -137 79v-229h-47z" />
    <glyph glyph-name="trademark" unicode="&#x2122;" horiz-adv-x="816" 
d="M166 630v-363h-43v363h-109v37h260v-37h-108zM393 565v-298h-43v400h35l166 -319l169 319h34v-400h-43v298l-160 -303z" />
    <glyph glyph-name="Eth" unicode="&#xd0;" horiz-adv-x="618" 
d="M90 363v304h171c189 0 309 -124 309 -320c0 -218 -125 -347 -336 -347h-144v316h-80v47h80zM147 363h185v-47h-185v-265h31c133 0 184 11 236 52c66 50 98 131 98 244c0 174 -90 269 -254 269h-111v-253z" />
    <glyph glyph-name="onehalf" unicode="&#xbd;" horiz-adv-x="776" 
d="M173 594l-100 -68v41l141 98v-404h-41v333zM636 646l-466 -659l-30 21l467 659zM559 39h156v-39h-234l148 194c48 63 58 81 58 107c0 36 -31 61 -76 61c-49 0 -70 -23 -71 -77h-41c4 77 42 114 115 114c67 0 114 -40 114 -97c0 -32 -11 -58 -46 -103z" />
    <glyph glyph-name="plusminus" unicode="&#xb1;" 
d="M27 365h206v191h33v-191h206v-32h-206v-189h-33v189h-206v32zM27 99h445v-32h-445v32z" />
    <glyph glyph-name="Thorn" unicode="&#xde;" horiz-adv-x="519" 
d="M140 178v-178h-57v667h57v-90h104c79 0 137 -16 177 -48c43 -35 66 -88 66 -150c0 -66 -26 -124 -73 -160c-37 -29 -85 -41 -161 -41h-113zM140 229h102c39 0 67 3 92 12c59 18 97 73 97 137c0 66 -39 119 -102 137c-29 8 -58 11 -106 11h-83v-297z" />
    <glyph glyph-name="onequarter" unicode="&#xbc;" horiz-adv-x="776" 
d="M173 594l-100 -68v41l141 98v-404h-41v333zM636 646l-466 -659l-30 21l467 659zM651 93h-172v28l213 295v-284h54v-39h-54v-93h-41v93zM651 132v168l-122 -168h122z" />
    <glyph glyph-name="divide" unicode="&#xf7;" 
d="M27 351h445v-32h-445v32zM250 556c18 0 33 -15 33 -33c0 -19 -15 -34 -33 -34c-19 0 -34 15 -34 33c0 19 15 34 34 34zM250 180c18 0 33 -15 33 -33c0 -19 -15 -34 -33 -34c-19 0 -34 15 -34 33c0 19 15 34 34 34z" />
    <glyph glyph-name="brokenbar" unicode="&#xa6;" 
d="M223 667h53v-329h-53v329zM223 153h53v-320h-53v320z" />
    <glyph glyph-name="degree" unicode="&#xb0;" 
d="M251 661c75 0 135 -61 135 -137c0 -75 -61 -136 -135 -136c-76 0 -137 61 -137 137s61 136 137 136zM249 632c-57 0 -105 -49 -105 -107c0 -59 48 -108 106 -108c57 0 106 48 106 105c0 62 -47 110 -107 110z" />
    <glyph glyph-name="thorn" unicode="&#xfe;" horiz-adv-x="557" 
d="M80 667h50v-305c47 77 95 106 176 106c125 0 208 -91 208 -230c0 -147 -84 -246 -210 -246c-35 0 -69 8 -100 24s-46 30 -74 67v-303h-50v887zM300 421c-102 0 -170 -80 -170 -199c0 -109 67 -183 167 -183c99 0 164 77 164 194c0 61 -13 103 -43 136
c-29 32 -74 52 -118 52z" />
    <glyph glyph-name="threequarters" unicode="&#xbe;" horiz-adv-x="776" 
d="M207 614h-153v39h238l-125 -146c71 0 125 -53 125 -122c0 -75 -60 -130 -141 -130c-65 0 -111 33 -129 91l38 12c16 -43 46 -65 89 -65c56 0 100 39 100 89c0 51 -41 86 -103 86c-21 0 -33 -3 -57 -16l-11 13zM636 646l-467 -659l-29 21l466 659zM651 93h-172v28l213 295
v-284h54v-39h-54v-93h-41v93zM651 132v168l-122 -168h122z" />
    <glyph glyph-name="twosuperior" unicode="&#xb2;" horiz-adv-x="327" 
d="M110 300h156v-39h-234l148 195c47 62 58 81 58 107c0 36 -31 61 -76 61c-49 0 -70 -23 -71 -77h-42c5 77 43 114 115 114c68 0 115 -40 115 -97c0 -33 -11 -58 -46 -103z" />
    <glyph glyph-name="registered" unicode="&#xae;" horiz-adv-x="787" 
d="M246 527h166c89 0 138 -38 138 -108c0 -46 -26 -80 -74 -97c54 -16 67 -40 68 -125c3 -46 4 -51 12 -66h-38c-6 9 -8 21 -10 72c-2 86 -21 103 -113 105h-112v-177h-37v396zM283 499v-164h112c78 0 117 27 117 83c0 55 -34 81 -107 81h-122zM398 678
c186 0 340 -156 340 -345c0 -190 -154 -344 -344 -344c-189 0 -344 154 -344 344c0 193 153 345 348 345zM398 648c-177 0 -315 -139 -315 -315c0 -173 140 -314 311 -314c172 0 311 141 311 314c0 172 -139 315 -307 315z" />
    <glyph glyph-name="eth" unicode="&#xf0;" horiz-adv-x="538" 
d="M184 552l95 53c-27 25 -75 62 -99 75l23 27c38 -18 73 -43 115 -81l102 56l19 -32l-92 -51c94 -98 149 -225 149 -347c0 -81 -22 -146 -65 -191c-42 -44 -101 -69 -164 -69c-131 0 -224 99 -224 239c0 73 21 130 63 172c44 42 103 66 164 66c49 0 86 -12 133 -43
c-16 47 -58 111 -98 151l-103 -58zM267 422c-101 0 -172 -79 -172 -191c0 -114 70 -192 173 -192c104 0 176 80 176 195c0 110 -74 188 -177 188z" />
    <glyph glyph-name="multiply" unicode="&#xd7;" 
d="M88 519l161 -161l162 161l23 -23l-162 -161l162 -162l-23 -22l-161 161l-162 -162l-23 23l162 162l-161 161z" />
    <glyph glyph-name="threesuperior" unicode="&#xb3;" horiz-adv-x="327" 
d="M207 614h-153v39h238l-125 -146c71 0 125 -53 125 -122c0 -75 -60 -130 -141 -130c-65 0 -111 33 -129 91l38 12c16 -43 46 -65 89 -65c56 0 100 39 100 89c0 51 -41 86 -103 86c-21 0 -33 -3 -57 -16l-11 13z" />
    <glyph glyph-name="copyright" unicode="&#xa9;" horiz-adv-x="787" 
d="M548 296h32c-8 -100 -81 -167 -182 -167c-114 0 -192 83 -192 205s79 206 194 206c92 0 164 -57 173 -136h-31c-15 64 -68 103 -142 103c-93 0 -156 -70 -156 -173s62 -172 154 -172c83 0 140 50 150 134zM398 678c186 0 340 -156 340 -345c0 -190 -154 -344 -344 -344
c-189 0 -344 154 -344 344c0 193 154 345 348 345zM398 648c-176 0 -315 -139 -315 -315c0 -173 140 -314 311 -314c172 0 311 141 311 315c0 171 -139 314 -307 314z" />
    <glyph glyph-name="Aacute" unicode="&#xc1;" horiz-adv-x="592" 
d="M457 175h-322l-71 -175h-57l262 667h62l254 -667h-63zM437 227l-139 364l-142 -364h281zM350 845h71l-111 -130h-46z" />
    <glyph glyph-name="Acircumflex" unicode="&#xc2;" horiz-adv-x="592" 
d="M457 175h-322l-71 -175h-57l262 667h62l254 -667h-63zM437 227l-139 364l-142 -364h281zM296 805l-73 -90h-54l106 132h46l103 -132h-54z" />
    <glyph glyph-name="Adieresis" unicode="&#xc4;" horiz-adv-x="592" 
d="M457 175h-322l-71 -175h-57l262 667h62l254 -667h-63zM437 227l-139 364l-142 -364h281zM197 821c23 0 41 -18 41 -42c0 -23 -18 -41 -41 -41c-24 0 -42 18 -42 41c0 24 18 42 42 42zM397 821c23 0 41 -18 41 -42c0 -23 -18 -41 -41 -41c-24 0 -42 18 -42 41
c0 24 18 42 42 42z" />
    <glyph glyph-name="Agrave" unicode="&#xc0;" horiz-adv-x="592" 
d="M457 175h-322l-71 -175h-57l262 667h62l254 -667h-63zM437 227l-139 364l-142 -364h281zM242 845l86 -130h-46l-111 130h71z" />
    <glyph glyph-name="Aring" unicode="&#xc5;" horiz-adv-x="592" 
d="M457 175h-322l-71 -175h-57l262 667h62l254 -667h-63zM437 227l-139 364l-142 -364h281zM297 857c41 0 73 -32 73 -75c0 -40 -33 -72 -73 -72c-42 0 -74 32 -74 74c0 41 32 73 74 73zM297 832c-28 0 -49 -20 -49 -48s21 -49 49 -49c27 0 48 21 48 48c0 28 -20 49 -48 49z
" />
    <glyph glyph-name="Atilde" unicode="&#xc3;" horiz-adv-x="592" 
d="M457 175h-322l-71 -175h-57l262 667h62l254 -667h-63zM437 227l-139 364l-142 -364h281zM416 824l39 -27c-34 -48 -61 -68 -94 -68c-20 0 -32 4 -69 27c-19 11 -37 18 -47 18c-23 0 -40 -15 -55 -47l-39 22c34 58 56 76 89 76c19 0 34 -6 73 -28c22 -12 41 -20 50 -20
c19 0 38 17 53 47z" />
    <glyph glyph-name="Ccedilla" unicode="&#xc7;" horiz-adv-x="628" 
d="M559 144l42 -37c-30 -41 -49 -58 -83 -78c-45 -27 -101 -41 -157 -41c-91 0 -170 34 -226 97c-55 63 -88 155 -88 248c0 199 133 346 313 346c98 0 176 -38 241 -119l-42 -34c-30 33 -45 46 -65 60c-38 26 -87 41 -134 41c-146 0 -254 -125 -254 -295
c0 -169 109 -292 257 -292c79 0 138 31 196 104zM287 -207l-33 27c50 39 71 70 85 124l56 -21c-17 -50 -52 -92 -108 -130z" />
    <glyph glyph-name="Eacute" unicode="&#xc9;" horiz-adv-x="478" 
d="M147 616v-253h278v-51h-278v-261h278v-51h-335v667h335v-51h-278zM293 845h71l-111 -130h-46z" />
    <glyph glyph-name="Ecircumflex" unicode="&#xca;" horiz-adv-x="478" 
d="M147 616v-253h278v-51h-278v-261h278v-51h-335v667h335v-51h-278zM239 805l-73 -90h-54l106 132h46l103 -132h-54z" />
    <glyph glyph-name="Edieresis" unicode="&#xcb;" horiz-adv-x="478" 
d="M147 616v-253h278v-51h-278v-261h278v-51h-335v667h335v-51h-278zM140 821c23 0 41 -18 41 -42c0 -23 -18 -41 -41 -41c-24 0 -42 18 -42 41c0 24 18 42 42 42zM340 821c23 0 41 -18 41 -42c0 -23 -18 -41 -41 -41c-24 0 -42 18 -42 41c0 24 18 42 42 42z" />
    <glyph glyph-name="Egrave" unicode="&#xc8;" horiz-adv-x="478" 
d="M147 616v-253h278v-51h-278v-261h278v-51h-335v667h335v-51h-278zM185 845l86 -130h-46l-111 130h71z" />
    <glyph glyph-name="Iacute" unicode="&#xcd;" horiz-adv-x="237" 
d="M147 667v-667h-57v667h57zM173 845h71l-111 -130h-46z" />
    <glyph glyph-name="Icircumflex" unicode="&#xce;" horiz-adv-x="237" 
d="M147 667v-667h-57v667h57zM119 805l-73 -90h-55l106 132h46l103 -132h-53z" />
    <glyph glyph-name="Idieresis" unicode="&#xcf;" horiz-adv-x="237" 
d="M147 667v-667h-57v667h57zM52 821c23 0 41 -18 41 -42c0 -23 -18 -41 -41 -41c-24 0 -42 18 -42 41c0 24 18 42 42 42zM185 821c23 0 41 -18 41 -42c0 -23 -18 -41 -41 -41c-24 0 -42 18 -42 41c0 24 18 42 42 42z" />
    <glyph glyph-name="Igrave" unicode="&#xcc;" horiz-adv-x="237" 
d="M146 667v-667h-57v667h57zM64 845l86 -130h-46l-111 130h71z" />
    <glyph glyph-name="Ntilde" unicode="&#xd1;" horiz-adv-x="679" 
d="M147 555v-555h-57v667h47l395 -547v547h57v-667h-43zM459 824l40 -27c-35 -48 -62 -68 -95 -68c-20 0 -32 4 -69 27c-19 11 -36 18 -47 18c-23 0 -40 -15 -55 -47l-39 22c35 58 56 76 89 76c19 0 34 -6 73 -28c22 -12 42 -20 50 -20c19 0 39 17 53 47z" />
    <glyph glyph-name="Oacute" unicode="&#xd3;" horiz-adv-x="731" 
d="M367 679c90 0 179 -43 242 -117c50 -59 74 -136 74 -237c0 -107 -39 -199 -111 -259c-60 -50 -134 -78 -207 -78c-97 0 -194 49 -254 128c-41 54 -64 130 -64 214c0 106 33 192 98 256c60 59 141 93 222 93zM366 627c-150 0 -261 -124 -261 -293
c0 -171 108 -294 259 -294c72 0 143 32 192 86c41 47 69 127 69 203c0 98 -25 168 -80 222c-48 47 -116 76 -179 76zM419 845h71l-111 -130h-46z" />
    <glyph glyph-name="Ocircumflex" unicode="&#xd4;" horiz-adv-x="731" 
d="M367 679c90 0 179 -43 242 -117c50 -59 74 -136 74 -237c0 -107 -39 -199 -111 -259c-60 -50 -134 -78 -207 -78c-97 0 -194 49 -254 128c-41 54 -64 130 -64 214c0 106 33 192 98 256c60 59 141 93 222 93zM366 627c-150 0 -261 -124 -261 -293
c0 -171 108 -294 259 -294c72 0 143 32 192 86c41 47 69 127 69 203c0 98 -25 168 -80 222c-48 47 -116 76 -179 76zM365 805l-73 -90h-54l106 132h46l103 -132h-54z" />
    <glyph glyph-name="Odieresis" unicode="&#xd6;" horiz-adv-x="731" 
d="M367 679c90 0 179 -43 242 -117c50 -59 74 -136 74 -237c0 -107 -39 -199 -111 -259c-60 -50 -134 -78 -207 -78c-97 0 -194 49 -254 128c-41 54 -64 130 -64 214c0 106 33 192 98 256c60 59 141 93 222 93zM366 627c-150 0 -261 -124 -261 -293
c0 -171 108 -294 259 -294c72 0 143 32 192 86c41 47 69 127 69 203c0 98 -25 168 -80 222c-48 47 -116 76 -179 76zM266 821c23 0 41 -18 41 -42c0 -23 -18 -41 -41 -41c-24 0 -42 18 -42 41c0 24 18 42 42 42zM466 821c23 0 41 -18 41 -42c0 -23 -18 -41 -41 -41
c-24 0 -42 18 -42 41c0 24 18 42 42 42z" />
    <glyph glyph-name="Ograve" unicode="&#xd2;" horiz-adv-x="731" 
d="M367 679c90 0 179 -43 242 -117c50 -59 74 -136 74 -237c0 -107 -39 -199 -111 -259c-60 -50 -134 -78 -207 -78c-97 0 -194 49 -254 128c-41 54 -64 130 -64 214c0 106 33 192 98 256c60 59 141 93 222 93zM366 627c-150 0 -261 -124 -261 -293
c0 -171 108 -294 259 -294c72 0 143 32 192 86c41 47 69 127 69 203c0 98 -25 168 -80 222c-48 47 -116 76 -179 76zM311 845l86 -130h-46l-111 130h71z" />
    <glyph glyph-name="Otilde" unicode="&#xd5;" horiz-adv-x="731" 
d="M367 679c90 0 179 -43 242 -117c50 -59 74 -136 74 -237c0 -107 -39 -199 -111 -259c-60 -50 -134 -78 -207 -78c-97 0 -194 49 -254 128c-41 54 -64 130 -64 214c0 106 33 192 98 256c60 59 141 93 222 93zM366 627c-150 0 -261 -124 -261 -293
c0 -171 108 -294 259 -294c72 0 143 32 192 86c41 47 69 127 69 203c0 98 -25 168 -80 222c-48 47 -116 76 -179 76zM485 824l39 -27c-34 -48 -62 -68 -94 -68c-21 0 -32 4 -69 27c-19 11 -37 18 -47 18c-23 0 -40 -15 -55 -47l-40 22c35 58 57 76 90 76c19 0 34 -6 73 -28
c22 -12 41 -20 50 -20c19 0 38 17 53 47z" />
    <glyph glyph-name="Uacute" unicode="&#xda;" horiz-adv-x="635" 
d="M134 667v-400c0 -97 14 -145 52 -179c31 -28 85 -48 129 -48s96 20 130 50c43 40 54 76 54 180v397h60v-400c0 -102 -14 -151 -56 -200c-44 -51 -110 -79 -185 -79c-76 0 -145 30 -190 84c-40 48 -51 90 -51 195v400h57zM372 845h71l-111 -130h-46z" />
    <glyph glyph-name="Ucircumflex" unicode="&#xdb;" horiz-adv-x="635" 
d="M134 667v-400c0 -97 14 -145 52 -179c31 -28 85 -48 129 -48s96 20 130 50c43 40 54 76 54 180v397h60v-400c0 -102 -14 -151 -56 -200c-44 -51 -110 -79 -185 -79c-76 0 -145 30 -190 84c-40 48 -51 90 -51 195v400h57zM318 805l-73 -90h-54l106 132h46l103 -132h-54z
" />
    <glyph glyph-name="Udieresis" unicode="&#xdc;" horiz-adv-x="635" 
d="M134 667v-400c0 -97 14 -145 52 -179c31 -28 85 -48 129 -48s96 20 130 50c43 40 54 76 54 180v397h60v-400c0 -102 -14 -151 -56 -200c-44 -51 -110 -79 -185 -79c-76 0 -145 30 -190 84c-40 48 -51 90 -51 195v400h57zM219 821c23 0 41 -18 41 -42
c0 -23 -18 -41 -41 -41c-24 0 -42 18 -42 41c0 24 18 42 42 42zM419 821c23 0 41 -18 41 -42c0 -23 -18 -41 -41 -41c-24 0 -42 18 -42 41c0 24 18 42 42 42z" />
    <glyph glyph-name="Ugrave" unicode="&#xd9;" horiz-adv-x="635" 
d="M134 667v-400c0 -97 14 -145 52 -179c31 -28 85 -48 129 -48s96 20 130 50c43 40 54 76 54 180v397h60v-400c0 -102 -14 -151 -56 -200c-44 -51 -110 -79 -185 -79c-76 0 -145 30 -190 84c-40 48 -51 90 -51 195v400h57zM264 845l86 -130h-46l-111 130h71z" />
    <glyph glyph-name="Yacute" unicode="&#xdd;" horiz-adv-x="515" 
d="M288 293v-293h-57v293l-234 374h67l194 -314l193 314h67zM312 845h71l-111 -130h-46z" />
    <glyph glyph-name="Ydieresis" unicode="&#x178;" horiz-adv-x="515" 
d="M288 293v-293h-57v293l-234 374h67l194 -314l193 314h67zM159 821c23 0 41 -18 41 -42c0 -23 -18 -41 -41 -41c-24 0 -42 18 -42 41c0 24 18 42 42 42zM358 821c23 0 41 -18 41 -42c0 -23 -18 -41 -41 -41c-24 0 -42 18 -42 41c0 24 18 42 42 42z" />
    <glyph glyph-name="aacute" unicode="&#xe1;" horiz-adv-x="561" 
d="M428 375v85h50v-460h-50v102c-46 -75 -101 -110 -172 -110c-124 0 -213 99 -213 238s88 238 212 238c73 0 129 -30 173 -93zM259 421c-55 0 -93 -18 -123 -59c-26 -36 -41 -85 -41 -135c0 -108 69 -188 161 -188c96 0 173 89 173 198s-69 184 -170 184zM334 653h69
l-110 -128h-42z" />
    <glyph glyph-name="acircumflex" unicode="&#xe2;" horiz-adv-x="561" 
d="M428 375v85h50v-460h-50v102c-46 -75 -101 -110 -172 -110c-124 0 -213 99 -213 238s88 238 212 238c73 0 129 -30 173 -93zM259 421c-55 0 -93 -18 -123 -59c-26 -36 -41 -85 -41 -135c0 -108 69 -188 161 -188c96 0 173 89 173 198s-69 184 -170 184zM279 615l-73 -90
h-54l105 130h48l104 -130h-54z" />
    <glyph glyph-name="adieresis" unicode="&#xe4;" horiz-adv-x="561" 
d="M428 375v85h50v-460h-50v102c-46 -75 -101 -110 -172 -110c-124 0 -213 99 -213 238s88 238 212 238c73 0 129 -30 173 -93zM259 421c-55 0 -93 -18 -123 -59c-26 -36 -41 -85 -41 -135c0 -108 69 -188 161 -188c96 0 173 89 173 198s-69 184 -170 184zM184 624
c21 0 36 -16 36 -38c0 -20 -16 -36 -36 -36c-22 0 -37 16 -37 37c0 22 15 37 37 37zM377 624c21 0 36 -16 36 -38c0 -20 -16 -36 -36 -36c-22 0 -37 16 -37 37c0 22 15 37 37 37z" />
    <glyph glyph-name="agrave" unicode="&#xe0;" horiz-adv-x="561" 
d="M428 375v85h50v-460h-50v102c-46 -75 -101 -110 -172 -110c-124 0 -213 99 -213 238s88 238 212 238c73 0 129 -30 173 -93zM259 421c-55 0 -93 -18 -123 -59c-26 -36 -41 -85 -41 -135c0 -108 69 -188 161 -188c96 0 173 89 173 198s-69 184 -170 184zM228 653l82 -128
h-42l-110 128h70z" />
    <glyph glyph-name="aring" unicode="&#xe5;" horiz-adv-x="561" 
d="M428 375v85h50v-460h-50v102c-46 -75 -101 -110 -172 -110c-124 0 -213 99 -213 238s88 238 212 238c73 0 129 -30 173 -93zM259 421c-55 0 -93 -18 -123 -59c-26 -36 -41 -85 -41 -135c0 -108 69 -188 161 -188c96 0 173 89 173 198s-69 184 -170 184zM261 667
c41 0 73 -32 73 -75c0 -40 -33 -72 -73 -72c-42 0 -74 32 -74 74c0 41 32 73 74 73zM261 642c-28 0 -49 -20 -49 -48s21 -49 49 -49c27 0 48 21 48 48c0 28 -20 49 -48 49z" />
    <glyph glyph-name="atilde" unicode="&#xe3;" horiz-adv-x="561" 
d="M428 375v85h50v-460h-50v102c-46 -75 -101 -110 -172 -110c-124 0 -213 99 -213 238s88 238 212 238c73 0 129 -30 173 -93zM259 421c-55 0 -93 -18 -123 -59c-26 -36 -41 -85 -41 -135c0 -108 69 -188 161 -188c96 0 173 89 173 198s-69 184 -170 184zM404 631l35 -25
c-30 -46 -60 -69 -90 -69c-20 0 -29 4 -84 39c-17 11 -28 15 -39 15c-22 0 -38 -13 -55 -42l-35 30c30 40 61 61 90 61c26 0 36 -4 94 -44c14 -9 19 -11 30 -11c20 0 37 14 54 46z" />
    <glyph glyph-name="ccedilla" unicode="&#xe7;" horiz-adv-x="451" 
d="M393 96l31 -36c-49 -48 -98 -68 -164 -68c-128 0 -217 98 -217 238s92 238 222 238c64 0 115 -21 159 -65l-31 -34c-38 35 -81 52 -128 52c-101 0 -170 -77 -170 -189c0 -115 67 -193 166 -193c52 0 94 18 132 57zM180 -216l-22 29c56 35 84 73 101 138l50 -18
c-35 -78 -65 -111 -129 -149z" />
    <glyph glyph-name="eacute" unicode="&#xe9;" horiz-adv-x="531" 
d="M493 209h-396c4 -44 12 -67 32 -96c33 -47 83 -74 139 -74c63 0 124 36 155 90l41 -22c-34 -69 -112 -115 -195 -115c-132 0 -226 98 -226 236c0 140 94 240 226 240c128 0 226 -99 226 -227c0 -6 -1 -18 -2 -32zM99 256h341c-3 40 -10 62 -27 89c-32 47 -86 76 -145 76
s-113 -29 -142 -78c-15 -24 -22 -45 -27 -87zM319 653h70l-110 -128h-43z" />
    <glyph glyph-name="ecircumflex" unicode="&#xea;" horiz-adv-x="531" 
d="M493 209h-396c4 -44 12 -67 32 -96c33 -47 83 -74 139 -74c63 0 124 36 155 90l41 -22c-34 -69 -112 -115 -195 -115c-132 0 -226 98 -226 236c0 140 94 240 226 240c128 0 226 -99 226 -227c0 -6 -1 -18 -2 -32zM99 256h341c-3 40 -10 62 -27 89c-32 47 -86 76 -145 76
s-113 -29 -142 -78c-15 -24 -22 -45 -27 -87zM265 615l-74 -90h-53l104 130h48l104 -130h-54z" />
    <glyph glyph-name="edieresis" unicode="&#xeb;" horiz-adv-x="531" 
d="M493 209h-396c4 -44 12 -67 32 -96c33 -47 83 -74 139 -74c63 0 124 36 155 90l41 -22c-34 -69 -112 -115 -195 -115c-132 0 -226 98 -226 236c0 140 94 240 226 240c128 0 226 -99 226 -227c0 -6 -1 -18 -2 -32zM99 256h341c-3 40 -10 62 -27 89c-32 47 -86 76 -145 76
s-113 -29 -142 -78c-15 -24 -22 -45 -27 -87zM170 624c21 0 36 -16 36 -38c0 -20 -16 -36 -36 -36c-22 0 -37 16 -37 37c0 22 15 37 37 37zM363 624c21 0 36 -16 36 -38c0 -20 -16 -36 -36 -36c-22 0 -37 16 -37 37c0 22 15 37 37 37z" />
    <glyph glyph-name="egrave" unicode="&#xe8;" horiz-adv-x="531" 
d="M493 209h-396c4 -44 12 -67 32 -96c33 -47 83 -74 139 -74c63 0 124 36 155 90l41 -22c-34 -69 -112 -115 -195 -115c-132 0 -226 98 -226 236c0 140 94 240 226 240c128 0 226 -99 226 -227c0 -6 -1 -18 -2 -32zM99 256h341c-3 40 -10 62 -27 89c-32 47 -86 76 -145 76
s-113 -29 -142 -78c-15 -24 -22 -45 -27 -87zM213 653l82 -128h-42l-110 128h70z" />
    <glyph glyph-name="iacute" unicode="&#xed;" horiz-adv-x="217" 
d="M133 460v-460h-50v460h50zM161 653h70l-110 -128h-42z" />
    <glyph glyph-name="icircumflex" unicode="&#xee;" horiz-adv-x="217" 
d="M133 460v-460h-50v460h50zM107 615l-74 -90h-53l104 130h49l104 -130h-54z" />
    <glyph glyph-name="idieresis" unicode="&#xef;" horiz-adv-x="217" 
d="M133 460v-460h-50v460h50zM49 624c21 0 36 -16 36 -38c0 -20 -16 -36 -36 -36c-22 0 -37 16 -37 37c0 22 15 37 37 37zM169 624c21 0 36 -16 36 -38c0 -20 -16 -36 -36 -36c-22 0 -37 16 -37 37c0 22 15 37 37 37z" />
    <glyph glyph-name="igrave" unicode="&#xec;" horiz-adv-x="217" 
d="M134 460v-460h-50v460h50zM56 653l82 -128h-42l-110 128h70z" />
    <glyph glyph-name="ntilde" unicode="&#xf1;" horiz-adv-x="497" 
d="M83 460h50v-69c44 54 87 77 143 77c41 0 77 -13 102 -36c29 -26 39 -56 39 -112v-320h-50v298c0 48 -5 74 -19 92c-15 19 -44 31 -78 31c-39 0 -73 -14 -100 -42c-28 -29 -37 -53 -37 -97v-282h-50v460zM372 631l34 -25c-30 -46 -60 -69 -89 -69c-20 0 -29 4 -84 39
c-18 11 -28 15 -39 15c-22 0 -39 -13 -55 -42l-35 30c29 40 60 61 90 61c26 0 35 -4 94 -44c13 -9 19 -11 29 -11c21 0 38 14 55 46z" />
    <glyph glyph-name="oacute" unicode="&#xf3;" horiz-adv-x="537" 
d="M270 468c69 0 131 -29 174 -81c35 -43 51 -92 51 -157c0 -134 -100 -238 -228 -238c-67 0 -132 30 -174 80c-32 38 -50 96 -50 160c0 75 22 132 67 174c42 40 100 62 160 62zM270 421c-105 0 -175 -77 -175 -192c0 -113 70 -190 174 -190c101 0 174 80 174 191
c0 62 -17 108 -52 142c-31 30 -77 49 -121 49zM322 653h70l-110 -128h-43z" />
    <glyph glyph-name="ocircumflex" unicode="&#xf4;" horiz-adv-x="537" 
d="M270 468c69 0 131 -29 174 -81c35 -43 51 -92 51 -157c0 -134 -100 -238 -228 -238c-67 0 -132 30 -174 80c-32 38 -50 96 -50 160c0 75 22 132 67 174c42 40 100 62 160 62zM270 421c-105 0 -175 -77 -175 -192c0 -113 70 -190 174 -190c101 0 174 80 174 191
c0 62 -17 108 -52 142c-31 30 -77 49 -121 49zM268 615l-74 -90h-53l104 130h48l104 -130h-54z" />
    <glyph glyph-name="odieresis" unicode="&#xf6;" horiz-adv-x="537" 
d="M270 468c69 0 131 -29 174 -81c35 -43 51 -92 51 -157c0 -134 -100 -238 -228 -238c-67 0 -132 30 -174 80c-32 38 -50 96 -50 160c0 75 22 132 67 174c42 40 100 62 160 62zM270 421c-105 0 -175 -77 -175 -192c0 -113 70 -190 174 -190c101 0 174 80 174 191
c0 62 -17 108 -52 142c-31 30 -77 49 -121 49zM173 624c21 0 36 -16 36 -38c0 -20 -16 -36 -36 -36c-22 0 -37 16 -37 37c0 22 15 37 37 37zM366 624c21 0 36 -16 36 -38c0 -20 -16 -36 -36 -36c-22 0 -37 16 -37 37c0 22 15 37 37 37z" />
    <glyph glyph-name="ograve" unicode="&#xf2;" horiz-adv-x="537" 
d="M270 468c69 0 131 -29 174 -81c35 -43 51 -92 51 -157c0 -134 -100 -238 -228 -238c-67 0 -132 30 -174 80c-32 38 -50 96 -50 160c0 75 22 132 67 174c42 40 100 62 160 62zM270 421c-105 0 -175 -77 -175 -192c0 -113 70 -190 174 -190c101 0 174 80 174 191
c0 62 -17 108 -52 142c-31 30 -77 49 -121 49zM216 653l82 -128h-42l-110 128h70z" />
    <glyph glyph-name="otilde" unicode="&#xf5;" horiz-adv-x="537" 
d="M270 468c69 0 131 -29 174 -81c35 -43 51 -92 51 -157c0 -134 -100 -238 -228 -238c-67 0 -132 30 -174 80c-32 38 -50 96 -50 160c0 75 22 132 67 174c42 40 100 62 160 62zM270 421c-105 0 -175 -77 -175 -192c0 -113 70 -190 174 -190c101 0 174 80 174 191
c0 62 -17 108 -52 142c-31 30 -77 49 -121 49zM393 631l34 -25c-30 -46 -60 -69 -90 -69c-19 0 -28 4 -84 39c-17 11 -27 15 -38 15c-22 0 -39 -13 -56 -42l-35 30c30 40 61 61 91 61c25 0 35 -4 93 -44c14 -9 19 -11 30 -11c20 0 37 14 55 46z" />
    <glyph glyph-name="uacute" unicode="&#xfa;" horiz-adv-x="470" 
d="M352 460h50v-297c0 -60 -11 -91 -43 -122c-32 -32 -76 -49 -123 -49c-101 0 -168 68 -168 171v297h50v-297c0 -74 47 -124 117 -124c35 0 71 15 92 38c18 20 25 42 25 86v297zM288 653h70l-110 -128h-43z" />
    <glyph glyph-name="ucircumflex" unicode="&#xfb;" horiz-adv-x="470" 
d="M352 460h50v-297c0 -60 -11 -91 -43 -122c-32 -32 -76 -49 -123 -49c-101 0 -168 68 -168 171v297h50v-297c0 -74 47 -124 117 -124c35 0 71 15 92 38c18 20 25 42 25 86v297zM234 615l-74 -90h-53l104 130h48l104 -130h-54z" />
    <glyph glyph-name="udieresis" unicode="&#xfc;" horiz-adv-x="470" 
d="M352 460h50v-297c0 -60 -11 -91 -43 -122c-32 -32 -76 -49 -123 -49c-101 0 -168 68 -168 171v297h50v-297c0 -74 47 -124 117 -124c35 0 71 15 92 38c18 20 25 42 25 86v297zM139 624c21 0 36 -16 36 -38c0 -20 -16 -36 -36 -36c-22 0 -37 16 -37 37c0 22 15 37 37 37z
M332 624c21 0 36 -16 36 -38c0 -20 -16 -36 -36 -36c-22 0 -37 16 -37 37c0 22 15 37 37 37z" />
    <glyph glyph-name="ugrave" unicode="&#xf9;" horiz-adv-x="470" 
d="M352 460h50v-297c0 -60 -11 -91 -43 -122c-32 -32 -76 -49 -123 -49c-101 0 -168 68 -168 171v297h50v-297c0 -74 47 -124 117 -124c35 0 71 15 92 38c18 20 25 42 25 86v297zM182 653l82 -128h-42l-110 128h70z" />
    <glyph glyph-name="yacute" unicode="&#xfd;" horiz-adv-x="422" 
d="M202 84l154 376h56l-283 -688h-55l101 245l-165 443h53zM264 653h70l-110 -128h-43z" />
    <glyph glyph-name="ydieresis" unicode="&#xff;" horiz-adv-x="422" 
d="M202 84l154 376h56l-283 -688h-55l101 245l-165 443h53zM115 624c21 0 36 -16 36 -38c0 -20 -16 -36 -36 -36c-22 0 -37 16 -37 37c0 22 15 37 37 37zM308 624c21 0 36 -16 36 -38c0 -20 -16 -36 -36 -36c-22 0 -37 16 -37 37c0 22 15 37 37 37z" />
    <glyph glyph-name="Euro" unicode="&#x20ac;" 
d="M31 406h44c5 32 10 58 19 85c33 110 119 188 209 188c64 0 132 -37 180 -99l-26 -55c-40 66 -96 102 -156 102c-81 0 -148 -89 -167 -221h276l-21 -47h-260c-1 -9 -1 -15 -1 -26s0 -21 2 -31h236l-21 -47h-211c19 -131 84 -215 168 -215c62 0 120 37 157 99v-78
c-46 -46 -104 -73 -157 -73c-91 0 -180 79 -211 187c-7 26 -12 50 -16 80h-64l20 47h40c-1 12 -1 16 -1 25c0 8 0 21 1 32h-60z" />
    <glyph glyph-name="afii57929" unicode="&#x2bc;" horiz-adv-x="213" 
d="M172 658l-98 -201l-39 17l94 206z" />
    <glyph glyph-name="uni00AD" unicode="&#xad;" horiz-adv-x="200" 
d="M200 265v-47h-200v47h200z" />
    <glyph glyph-name="pi" horiz-adv-x="495" 
d="M71 0v438h-70v42h494v-42h-70v-438h-50v438h-254v-438h-50z" />
    </font>
</defs>
</svg>
